# xmcd
#
# Track frame offsets:
#	150
#	15157
#	34917
#	49187
#	65132
#	81075
#	101030
#	115010
#	132007
#	146987
#	166770
#	181045
#	196972
#	212895
#	232797
#	246715
#	275137
#
# Disc length: 3680 seconds
#
# Revision: 1
# Processed by: cddbd v1.5.2PL0 Copyright (c) Steve Scherf et al.
# Submitted via: audiograbber 1.83.01
#
DISCID=f20e5e11
DTITLE=Various Artist - SC3292
DYEAR=1900
DGENRE=Karaoke
TTITLE0=Chely Wright - Jezebel
TTITLE1=Mark McGuinn - She Doesn't Dance
TTITLE2=Blackhawk - Days of America
TTITLE3=Jessica Andrews - Karma
TTITLE4=Toby Keith - My List
TTITLE5=Shania Twain - The Heart Is Blind
TTITLE6=Garth Brooks - Thicker Than Blood
TTITLE7=Patty Loveless and Travis Tritt - Out of Control Raging Fire
TTITLE8=Chely Wright - Jezebel (vocals)
TTITLE9=Mark McGuinn - She Doesn't Dance (vocals)
TTITLE10=Blackhawk - Days Of America (vocals)
TTITLE11=Jessica Andrews - Karma (vocals)
TTITLE12=Toby Keith - My List (vocals)
TTITLE13=Shania Twain - The Heart Is Blind (vocals)
TTITLE14=Garth Brooks - Thicker Than Blood (vocals)
TTITLE15=Patty Loveless and Travis Tritt - Out of Control Raging Fire (vocals)
TTITLE16=Data Track - Data Track
EXTD=
EXTT0=
EXTT1=
EXTT2=
EXTT3=
EXTT4=
EXTT5=
EXTT6=
EXTT7=
EXTT8=
EXTT9=
EXTT10=
EXTT11=
EXTT12=
EXTT13=
EXTT14=
EXTT15=
EXTT16=
PLAYORDER=
